<?xml version="1.0" encoding="UTF-8"?>
<svg width="16px" height="16px" viewBox="0 0 16 16" version="1.1" xmlns="http://www.w3.org/2000/svg" xmlns:xlink="http://www.w3.org/1999/xlink">
    <title>safari-pinned-tab</title>
    <defs></defs>
    <g id="Logo" stroke="none" stroke-width="1" fill="none" fill-rule="evenodd">
        <g id="Group-7" fill="#000000">
            <path d="M10.1763789,9.64884211 C10.1763789,10.704 9.74648421,11.6610526 9.05258947,12.3541053 C9.24458947,12.3962105 9.44416842,12.4185263 9.6488,12.4185263 C11.1759579,12.4185263 12.4184842,11.176 12.4184842,9.64884211 L12.4184842,5.33094737 L10.1763789,3.98568421 L10.1763789,9.64884211 Z" id="Fill-1"></path>
            <path d="M13.4736842,9.64884211 C13.4736842,11.7578947 11.7578947,13.4736842 9.64884211,13.4736842 C9.05894737,13.4736842 8.49978947,13.3393684 8,13.0997895 C7.50021053,13.3393684 6.94105263,13.4736842 6.35115789,13.4736842 C4.24210526,13.4736842 2.52631579,11.7578947 2.52631579,9.64884211 L2.52631579,6.35115789 C2.52631579,6.16126316 2.62863158,5.98568421 2.79410526,5.89221053 C2.95957895,5.79831579 3.16252632,5.80126316 3.32505263,5.89894737 L6.62273684,7.87705263 C6.78147368,7.97263158 6.87873684,8.14442105 6.87873684,8.32968421 L6.87873684,9.64884211 C6.87873684,10.5587368 7.32,11.368 8,11.8728421 C8.67957895,11.368 9.12126316,10.5587368 9.12126316,9.64884211 L9.12126316,3.05389474 C9.12126316,2.864 9.22315789,2.68842105 9.38905263,2.59494737 C9.55410526,2.50105263 9.75747368,2.50357895 9.92042105,2.60126316 L13.2176842,4.57978947 C13.3768421,4.67494737 13.4736842,4.84715789 13.4736842,5.03242105 L13.4736842,9.64884211 Z M8,0 C3.58189474,0 0,3.58189474 0,8 C0,12.4181053 3.58189474,16 8,16 C12.4181053,16 16,12.4181053 16,8 C16,3.58189474 12.4181053,0 8,0 Z" id="Fill-3"></path>
            <path d="M5.82362105,8.62829474 L3.58151579,7.28303158 L3.58151579,9.64892632 C3.58151579,11.1760842 4.82404211,12.4186105 6.3512,12.4186105 C6.55583158,12.4186105 6.75498947,12.3962947 6.94698947,12.3541895 C6.25562105,11.6632421 5.82656842,10.7099789 5.82362105,9.65861053 L5.82362105,8.62829474 Z" id="Fill-5"></path>
        </g>
    </g>
</svg>