<?xml version="1.0" standalone="no"?>
<!DOCTYPE svg PUBLIC "-//W3C//DTD SVG 20010904//EN"
 "http://www.w3.org/TR/2001/REC-SVG-20010904/DTD/svg10.dtd">
<svg version="1.0" xmlns="http://www.w3.org/2000/svg"
 width="700.000000pt" height="700.000000pt" viewBox="0 0 700.000000 700.000000"
 preserveAspectRatio="xMidYMid meet">
<metadata>
</metadata>
<g transform="translate(0.000000,700.000000) scale(0.100000,-0.100000)"
fill="#000000" stroke="none">
<path d="M3298 6995 c-2 -1 -41 -5 -88 -9 -100 -7 -225 -22 -295 -36 -27 -5
-61 -12 -75 -14 -429 -78 -857 -251 -1250 -504 -81 -52 -319 -227 -330 -243
-3 -3 -25 -23 -50 -44 -85 -70 -220 -205 -361 -361 -168 -186 -384 -518 -513
-789 -95 -198 -201 -501 -242 -688 -20 -90 -53 -272 -59 -322 -4 -33 -9 -69
-11 -80 -18 -98 -25 -572 -11 -715 12 -109 27 -226 41 -295 2 -11 6 -36 10
-55 49 -272 156 -595 283 -857 449 -928 1280 -1612 2270 -1868 72 -19 142 -36
155 -39 13 -2 60 -11 106 -20 46 -9 111 -19 145 -22 34 -3 65 -8 68 -9 15 -10
227 -20 409 -20 188 0 341 8 430 21 144 21 295 48 345 61 33 8 67 16 75 18
230 47 735 253 910 371 19 13 38 24 41 24 24 0 370 250 479 345 119 104 294
279 365 365 21 25 41 47 44 50 17 12 180 233 238 323 252 387 417 792 507
1248 14 70 28 155 32 190 3 35 8 67 10 70 9 17 19 214 18 399 0 188 -6 331
-19 420 -3 19 -7 56 -10 81 -3 25 -7 54 -9 65 -2 10 -11 60 -21 109 -98 525
-337 1052 -670 1480 -43 55 -81 102 -84 105 -4 3 -31 34 -61 69 -122 142 -340
343 -505 468 -159 119 -162 121 -345 231 -303 182 -686 331 -1047 406 -99 21
-246 44 -393 61 -56 7 -526 16 -532 10z m1069 -1150 c37 -21 103 -60 146 -87
43 -26 83 -48 88 -48 5 0 9 -4 9 -10 0 -5 4 -10 9 -10 18 0 1178 -703 1208
-732 71 -69 68 -3 67 -1183 0 -583 -3 -1096 -6 -1140 -25 -312 -163 -655 -366
-905 -231 -286 -550 -488 -904 -574 -100 -24 -120 -28 -238 -42 -62 -7 -288
-7 -338 0 -18 3 -52 8 -75 11 -23 3 -49 8 -57 10 -8 2 -29 7 -46 10 -60 10
-200 54 -282 89 l-83 35 -54 -24 c-135 -60 -334 -113 -490 -131 -67 -8 -306
-8 -351 0 -16 3 -60 10 -99 16 -470 74 -913 375 -1157 785 -140 235 -217 478
-235 740 -4 50 -7 428 -7 840 0 830 -2 814 62 880 48 49 93 69 167 71 69 3 66
4 273 -120 83 -50 160 -95 170 -101 9 -5 66 -39 125 -75 59 -36 116 -69 125
-75 10 -5 122 -73 250 -150 128 -77 240 -144 250 -150 9 -5 40 -23 67 -40 28
-16 58 -34 67 -40 138 -79 255 -156 282 -182 61 -61 66 -95 67 -488 1 -368 8
-452 50 -590 36 -122 114 -282 173 -357 12 -14 32 -41 46 -59 34 -44 141 -151
185 -184 l35 -27 38 28 c91 70 229 230 289 339 88 155 144 336 157 500 3 33 5
729 6 1547 0 1111 3 1495 12 1515 34 81 106 140 185 152 64 9 98 1 180 -44z"/>
<path d="M4449 3958 c-1 -1389 0 -1327 -18 -1438 -54 -325 -199 -627 -415
-865 -25 -27 -46 -53 -46 -57 0 -3 24 -9 53 -14 28 -4 63 -8 77 -10 128 -18
358 8 502 56 114 38 263 115 332 170 186 149 280 263 371 445 51 104 97 241
110 330 3 22 8 56 12 75 3 19 7 480 7 1023 1 867 -1 990 -14 1001 -8 7 -130
81 -270 165 -140 84 -262 156 -270 161 -48 30 -260 156 -285 170 -16 9 -53 31
-81 48 -28 18 -54 32 -58 32 -3 0 -6 -582 -7 -1292z"/>
<path d="M1569 3803 c0 -4 -1 -246 -1 -538 0 -605 2 -651 42 -801 72 -267 238
-505 467 -670 144 -104 347 -188 508 -210 17 -2 41 -6 55 -9 36 -8 228 -7 275
1 45 7 72 11 98 13 26 2 21 11 -29 66 -219 238 -363 545 -419 890 -11 70 -15
163 -16 425 l-1 255 -447 268 c-245 147 -465 279 -488 293 -24 14 -43 22 -44
17z"/>
</g>
</svg>
