<?xml version="1.0" standalone="no"?>
<!DOCTYPE svg PUBLIC "-//W3C//DTD SVG 20010904//EN"
 "http://www.w3.org/TR/2001/REC-SVG-20010904/DTD/svg10.dtd">
<svg version="1.0" xmlns="http://www.w3.org/2000/svg"
 width="997.000000pt" height="997.000000pt" viewBox="0 0 16 16"
 preserveAspectRatio="xMidYMid meet">
<g transform="translate(0.000000,997.000000) scale(0.100000,-0.100000)"
fill="#000000" stroke="none">
<path d="M6395 9952 c-179 -34 -336 -191 -375 -374 -8 -38 -11 -913 -13 -3203
-1 -1732 -6 -3161 -9 -3175 -4 -14 -9 -47 -13 -75 -3 -27 -8 -59 -10 -70 -3
-11 -7 -31 -9 -45 -39 -242 -164 -571 -310 -815 -139 -234 -361 -496 -541
-640 -27 -22 -52 -42 -55 -45 -20 -23 -72 -50 -82 -44 -46 27 -160 127 -269
234 -365 362 -621 855 -704 1358 -12 76 -14 90 -20 152 -3 36 -8 83 -10 105
-2 22 -4 354 -5 737 0 661 -2 701 -20 760 -25 81 -75 164 -130 215 -31 30
-887 556 -1087 668 -10 6 -103 62 -208 125 -104 63 -202 122 -217 130 -21 12
-647 387 -796 478 -20 12 -54 32 -76 45 -21 12 -46 27 -55 32 -28 18 -380 230
-398 240 -10 6 -67 39 -126 75 -59 36 -121 73 -137 82 -55 32 -153 56 -231 56
-85 0 -190 -30 -259 -73 -98 -62 -184 -187 -210 -305 -9 -42 -11 -460 -8
-1730 2 -921 6 -1684 10 -1695 3 -11 9 -51 13 -90 5 -59 28 -198 50 -310 44
-223 152 -541 266 -780 78 -166 264 -471 352 -581 8 -10 46 -57 83 -104 93
-116 113 -137 240 -264 102 -103 165 -162 225 -211 337 -279 652 -459 1074
-615 90 -33 295 -93 375 -110 175 -37 297 -58 454 -76 77 -9 551 -12 626 -3
166 18 186 20 205 24 11 3 37 7 58 10 80 11 113 17 152 26 22 5 54 12 70 15
81 14 411 116 500 154 11 5 66 29 123 54 l103 45 72 -34 c183 -86 477 -183
662 -221 11 -2 45 -9 75 -16 63 -13 53 -11 190 -31 58 -9 143 -19 190 -24 160
-15 620 -8 728 11 9 2 40 7 67 10 28 4 66 10 85 12 342 49 780 203 1125 394
137 76 386 243 472 316 11 11 41 35 65 54 107 86 282 258 383 375 33 38 66 76
74 84 7 8 39 49 70 90 31 42 58 78 62 81 8 8 151 227 192 295 73 124 197 387
246 525 7 19 17 44 21 55 41 95 130 439 150 580 7 44 13 87 15 95 2 9 6 43 10
75 4 33 10 71 13 85 3 14 8 1047 10 2295 2 1735 0 2284 -9 2330 -6 33 -27 90
-47 128 -54 105 -111 154 -321 277 -40 24 -534 320 -551 331 -34 21 -237 143
-270 161 -19 11 -46 28 -60 38 -14 9 -30 19 -36 21 -5 2 -69 40 -142 84 -73
44 -140 85 -149 90 -10 6 -29 17 -43 26 -20 13 -100 61 -258 154 -9 6 -39 23
-67 39 -27 16 -57 35 -65 42 -8 6 -31 20 -50 30 -19 11 -218 129 -442 264
-224 135 -415 250 -425 255 -10 6 -78 46 -151 90 -162 98 -213 124 -277 141
-45 13 -159 16 -210 6z m678 -1383 c73 -42 42 -24 375 -224 155 -94 298 -179
316 -190 19 -11 232 -139 475 -285 242 -146 449 -270 458 -275 10 -6 66 -40
126 -75 59 -36 125 -76 147 -88 l40 -24 -3 -2076 c-2 -1143 -6 -2097 -9 -2121
-9 -59 -21 -145 -23 -151 -1 -3 -5 -25 -9 -50 -32 -182 -119 -445 -209 -630
-381 -780 -1123 -1303 -1997 -1407 -84 -10 -456 -10 -540 0 -81 10 -235 36
-253 43 -9 3 3 22 37 58 77 81 127 137 166 186 19 25 37 47 40 50 29 27 230
310 230 323 0 3 13 25 29 49 50 76 157 280 206 393 95 223 189 513 219 680 3
17 8 41 11 55 3 14 7 39 10 55 3 17 7 41 10 55 2 14 7 45 10 70 4 25 8 56 10
70 6 33 17 170 20 245 2 33 4 1245 4 2694 l1 2633 23 -14 c12 -8 48 -30 80
-49z m-5900 -3059 c59 -36 120 -72 135 -81 145 -86 1152 -691 1210 -728 42
-26 82 -50 87 -52 6 -2 82 -47 168 -99 86 -52 175 -105 197 -118 l40 -23 0
-517 c1 -582 2 -640 26 -842 29 -248 113 -588 197 -800 6 -14 11 -27 12 -30
17 -51 76 -183 124 -281 161 -323 370 -620 614 -872 20 -21 37 -42 37 -47 0
-4 -21 -11 -47 -14 -27 -4 -57 -9 -68 -11 -11 -2 -33 -6 -50 -9 -150 -28 -564
-28 -711 -2 -11 2 -41 7 -69 11 -27 3 -88 16 -135 27 -47 11 -93 21 -103 23
-9 2 -59 17 -110 33 -699 223 -1263 737 -1559 1420 -39 91 -106 292 -123 367
-2 11 -11 50 -19 86 -53 242 -54 268 -55 1517 l-1 1163 47 -28 c27 -16 97 -57
156 -93z"/>
</g>
</svg>
