<?xml version="1.0" encoding="UTF-8"?>
<svg width="158px" height="158px" viewBox="0 0 158 158" version="1.1" xmlns="http://www.w3.org/2000/svg" xmlns:xlink="http://www.w3.org/1999/xlink">
    <!-- Generator: Sketch 51.3 (57544) - http://www.bohemiancoding.com/sketch -->
    <title>logo-circle-color</title>
    <desc>Created with Sketch.</desc>
    <defs>
        <linearGradient x1="0%" y1="96.5967942%" x2="100%" y2="39.0988737%" id="linearGradient-1">
            <stop stop-color="#FFAEFE" offset="0%"></stop>
            <stop stop-color="#7FC9FF" offset="52.4932239%"></stop>
            <stop stop-color="#2EFFDA" offset="100%"></stop>
        </linearGradient>
    </defs>
    <g id="Logo" stroke="none" stroke-width="1" fill="none" fill-rule="evenodd">
        <g id="logo-circle-color" fill="url(#linearGradient-1)" fill-rule="nonzero">
            <path d="M41,38.5 C48.6116713,38.5 54.8045761,44.5744618 54.995465,52.1401361 L55,52.14 C55,52.37 55,52.61 55,52.85 L55,85.5 C55,104.277681 39.7776815,119.5 21,119.5 L21,111.5 L0,111.5 L0,119.5 L21.01,119.5 L21.01,111.5 L21,111.5 C35.3594035,111.5 47,99.8594035 47,85.5 L47,52.85 C47,52.69 47,52.53 47,52.38 L54.995465,52.1401361 C54.9984823,52.2597242 55,52.3796848 55,52.5 L47,52.5 C47,49.1862915 44.3137085,46.5 41,46.5 L28.37,46.5 L20.44,46.5 C21.9919936,43.7130325 23.7397124,41.0396578 25.67,38.5 L41,38.5 Z M27.0337003,51.6616429 C27.0603694,51.2763406 27.1024941,50.8921496 27.16,50.51 L35.35,50.51 C35.1205617,51.1519424 35.0022007,51.828291 35,52.51 L35,52.85 L35,81.93 L35,85.5 C35.007839,90.131495 36.2579486,94.6760924 38.62,98.66 C36.9803832,100.847754 34.9494022,102.712594 32.63,104.16 C28.9682207,98.624733 27.0107279,92.1368436 27,85.5 L27,81.93 L27,52.85 C27,52.45 27,52.06 27,51.66 L27.0337003,51.6616429 Z M107,85.5 L107,53.23 C107,52.83 107,52.43 107,52.04 L107.007402,52.0403794 C107.249936,44.5211365 113.421812,38.5 121,38.5 C128.66521,38.5 134.891624,44.6602143 134.998601,52.3 L135,52.3 L135,83.88 L135,85.5 C134.998862,97.5234902 128.647519,108.652323 118.296014,114.768748 C107.944509,120.885173 95.1323004,121.079566 84.6,115.28 C86.8173898,113.509894 88.8298937,111.49739 90.6,109.28 C93.8741614,110.736417 97.4165342,111.492577 101,111.5 C115.359403,111.5 127,99.8594035 127,85.5 L127,83.88 L127,52.5 C127,49.1862915 124.313708,46.5 121,46.5 C117.686292,46.5 115,49.1862915 115,52.5 L115,53.23 L115,85.5 C115.007839,90.131495 116.257949,94.6760924 118.62,98.66 C116.980383,100.847754 114.949402,102.712594 112.63,104.16 C108.967146,98.6252373 107.009554,92.1370178 107,85.5 Z M75,85.5 C75.007839,90.131495 76.2579486,94.6760924 78.62,98.66 C76.9803832,100.847754 74.9494022,102.712594 72.63,104.16 C68.9682207,98.624733 67.0107279,92.1368436 67,85.5 L67,53.25 C67,52.85 67,52.46 67,52.06 L67.0067719,52.0603555 C67.2390082,44.5318035 73.4151025,38.5 81,38.5 C88.5647536,38.5 94.7281771,44.4998077 94.9912521,52.0004046 L95,52 C95,52.35 95,52.71 95,53.06 L95,85.5 C94.9860397,95.1564385 90.866654,104.351431 83.67,110.79 L78.33,104.79 C83.8164884,99.8743912 86.9662766,92.8663849 87,85.5 L87,53.06 C87,52.8733333 87,52.6866667 87,52.5 C87,49.1862915 84.3137085,46.5 81,46.5 C77.6862915,46.5 75,49.1862915 75,52.5 L75,53.25 L75,85.5 Z M78.33,104.84 L83.67,110.82 C72.9379812,120.503245 57.2382412,122.295434 44.6,115.28 C46.8173898,113.509894 48.8298937,111.49739 50.6,109.28 C59.9073088,113.419553 70.7804615,111.678594 78.33,104.84 Z" id="Combined-Shape"></path>
            <path d="M79,6.3527471e-22 C52.9491444,0.00661183601 28.5762418,12.855691 13.851126,34.3456441 C-0.873989764,55.8355973 -4.05809461,83.2034377 5.34,107.5 L14,107.5 C-1.11671139,73.1809103 12.9775498,33.019492 46.2256045,15.673549 C79.4736593,-1.67239395 120.476747,9.74402018 139.976478,41.7764317 C159.476208,73.8088433 150.787295,115.475263 120.109848,137.043969 C89.4324005,158.612676 47.2838721,152.689056 23.74,123.5 L13.74,123.5 C34.9188847,154.566053 75.0579542,166.401321 109.7035,151.795468 C144.349046,137.189615 163.90037,100.190098 156.446324,63.3379337 C148.992277,26.4857694 116.598468,-0.00686282475 79,6.3527471e-22 Z" id="Shape"></path>
        </g>
    </g>
</svg>