<svg enable-background="new 0 0 162.3 162.3" viewBox="0 0 162.3 162.3" xmlns="http://www.w3.org/2000/svg"><g fill="#fff"><path d="m128.6 57.6c2.4 0 4.3 1.9 4.3 4.3 0 .6-.1 1.2-.4 1.7l-13.9 31.7v.1l-5 11.3c-.7 1.6-2.2 2.6-3.9 2.6h-68.4c-2.4 0-4.3-1.9-4.3-4.3 0-.6.1-1.2.4-1.7l3.4-7.8v-.1l7.8-17.7c.9-2.2-.1-4.7-2.2-5.6-.5-.2-1.1-.4-1.7-.4h-8.5c-2.4 0-4.3-1.9-4.3-4.3 0-.6.1-1.2.4-1.7l2.4-5.4c.7-1.6 2.2-2.6 3.9-2.6h31.9c2.4 0 4.3 1.9 4.3 4.3 0 .6-.1 1.2-.4 1.7l-11.2 25.6c-.9 2.2.1 4.7 2.2 5.6.5.2 1.1.4 1.7.4 1.7 0 3.2-1 3.9-2.6l14.2-32.3c.7-1.6 2.2-2.6 3.9-2.6h10.3c2.4 0 4.3 1.9 4.3 4.3 0 .6-.1 1.2-.4 1.7l-11.1 25.5c-1 2.2 0 4.7 2.2 5.7s4.7 0 5.7-2.2l14.3-32.5c.7-1.6 2.2-2.6 3.9-2.6h10.3m0-8.1h-10.3c-3.7 0-7.2 1.6-9.5 4.5-2.3-2.7-5.7-4.3-9.3-4.3h-10.3c-3.5 0-6.9 1.5-9.2 4.2-2.3-2.8-5.8-4.4-9.4-4.4h-32c-4.9 0-9.3 2.9-11.3 7.4l-2.3 5.3c-2.7 6.2.1 13.5 6.3 16.2 1.6.7 3.2 1 4.9 1h2.8l-5.5 12.5v.1l-3.5 7.8c-2.7 6.2.1 13.5 6.3 16.2 1.6.7 3.3 1 5 1h68.3c4.9 0 9.3-2.9 11.3-7.3l5-11.3v-.1l13.9-31.7c2.7-6.2-.1-13.5-6.3-16.2-1.5-.5-3.2-.9-4.9-.9z"/><path d="m81.1 8c40.4 0 73.2 32.7 73.2 73.1s-32.7 73.2-73.1 73.2-73.2-32.7-73.2-73.1c0-40.5 32.7-73.2 73.1-73.2m0-8c-44.8 0-81.1 36.3-81.1 81.2s36.3 81.2 81.2 81.2 81.2-36.3 81.2-81.2c-.2-44.9-36.5-81.2-81.3-81.2z"/></g></svg>