<svg xmlns="http://www.w3.org/2000/svg" xmlns:xlink="http://www.w3.org/1999/xlink" viewBox="0 0 162.29 162.29"><defs><style>.cls-1{fill:url(#New_Gradient_Swatch_copy_3);}.cls-2{fill:url(#New_Gradient_Swatch_copy_4);}</style><linearGradient id="New_Gradient_Swatch_copy_3" x1="23.95" y1="83.43" x2="140.9" y2="83.43" gradientUnits="userSpaceOnUse"><stop offset="0" stop-color="#ffaefe"/><stop offset="0.14" stop-color="#ddb5fe"/><stop offset="0.46" stop-color="#87c7ff"/><stop offset="0.49" stop-color="#7fc9ff"/><stop offset="0.53" stop-color="#79cdfc"/><stop offset="1" stop-color="#2effda"/></linearGradient><linearGradient id="New_Gradient_Swatch_copy_4" y1="81.14" x2="162.29" y2="81.14" gradientUnits="userSpaceOnUse"><stop offset="0" stop-color="#ffaefe"/><stop offset="0.2" stop-color="#ddb5fe"/><stop offset="0.63" stop-color="#87c7ff"/><stop offset="0.67" stop-color="#7fc9ff"/><stop offset="0.69" stop-color="#79cdfc"/><stop offset="1" stop-color="#2effda"/></linearGradient></defs><title>Asset 40</title><g id="Layer_2" data-name="Layer 2"><g id="Layer_1-2" data-name="Layer 1"><path class="cls-1" d="M128.6,57.62a4.29,4.29,0,0,1,3.93,6L118.62,95.29l0,.09-5,11.29a4.27,4.27,0,0,1-3.93,2.56H41.33a4.29,4.29,0,0,1-3.93-6l3.44-7.83,0-.09,7.79-17.7a4.29,4.29,0,0,0-3.93-6H36.25a4.29,4.29,0,0,1-3.93-6l2.36-5.36a4.28,4.28,0,0,1,3.93-2.57H70.53a4.29,4.29,0,0,1,3.93,6L63.19,89.27a4.29,4.29,0,0,0,3.93,6h0a4.3,4.3,0,0,0,3.93-2.57L85.28,60.36a4.29,4.29,0,0,1,3.93-2.56H99.49a4.29,4.29,0,0,1,3.93,6L92.23,89.27a4.29,4.29,0,1,0,7.86,3.45L114.4,60.19a4.28,4.28,0,0,1,3.93-2.57H128.6m0-8H118.33a12.32,12.32,0,0,0-9.5,4.48,12.23,12.23,0,0,0-9.34-4.3H89.21A12.28,12.28,0,0,0,80,54a12.26,12.26,0,0,0-9.42-4.39H38.61A12.31,12.31,0,0,0,27.35,57L25,62.33A12.3,12.3,0,0,0,36.25,79.57h2.81l-5.5,12.5,0,.08L30.08,100a12.28,12.28,0,0,0,11.25,17.24h68.35a12.31,12.31,0,0,0,11.26-7.34l5-11.29,0-.09,13.92-31.65A12.29,12.29,0,0,0,128.6,49.62Z"/><path class="cls-2" d="M81.14,8A73.15,73.15,0,1,1,8,81.14,73.15,73.15,0,0,1,81.14,8m0-8a81.15,81.15,0,1,0,81.15,81.14A81.23,81.23,0,0,0,81.14,0Z"/></g></g></svg>