<svg height="158" viewBox="0 0 158 158" width="158" xmlns="http://www.w3.org/2000/svg"><g fill="#fff"><path d="m41 38.5c7.6116713 0 13.8045761 6.0744618 13.995465 13.6401361l.004535-.0001361v.71 32.65c0 18.777681-15.2223185 34-34 34v-8h-21v8h21.01v-8h-.01c14.3594035 0 26-11.6405965 26-26v-32.65c0-.16 0-.32 0-.47l7.995465-.2398639c.0030173.1195881.004535.2395487.004535.3598639h-8c0-3.3137085-2.6862915-6-6-6h-12.63-7.93c1.5519936-2.7869675 3.2997124-5.4603422 5.23-8zm-13.9662997 13.1616429c.0266691-.3853023.0687938-.7694933.1262997-1.1516429h8.19c-.2294383.6419424-.3477993 1.318291-.35 2v.34 29.08 3.57c.007839 4.631495 1.2579486 9.1760924 3.62 13.16-1.6396168 2.187754-3.6705978 4.052594-5.99 5.5-3.6617793-5.535267-5.6192721-12.0231564-5.63-18.66v-3.57-29.08c0-.4 0-.79 0-1.19zm79.9662997 33.8383571v-32.27c0-.4 0-.8 0-1.19l.007402.0003794c.242534-7.5192429 6.41441-13.5403794 13.992598-13.5403794 7.66521 0 13.891624 6.1602143 13.998601 13.8h.001399v31.58 1.62c-.001138 12.0234902-6.352481 23.152323-16.703986 29.268748s-23.1637136 6.310818-33.696014.511252c2.2173898-1.770106 4.2298937-3.78261 6-6 3.2741614 1.456417 6.8165342 2.212577 10.4 2.22 14.359403 0 26-11.6405965 26-26v-1.62-31.38c0-3.3137085-2.686292-6-6-6s-6 2.6862915-6 6v.73 32.27c.007839 4.631495 1.257949 9.1760924 3.62 13.16-1.639617 2.187754-3.670598 4.052594-5.99 5.5-3.662854-5.5347627-5.620446-12.0229822-5.63-18.66zm-32 0c.007839 4.631495 1.2579486 9.1760924 3.62 13.16-1.6396168 2.187754-3.6705978 4.052594-5.99 5.5-3.6617793-5.535267-5.6192721-12.0231564-5.63-18.66v-32.25c0-.4 0-.79 0-1.19l.0067719.0003555c.2322363-7.528552 6.4083306-13.5603555 13.9932281-13.5603555 7.5647536 0 13.7281771 5.9998077 13.9912521 13.5004046l.0087479-.0004046v1.06 32.44c-.0139603 9.6564385-4.133346 18.851431-11.33 25.29l-5.34-6c5.4864884-4.9156088 8.6362766-11.9236151 8.67-19.29v-32.44c0-.1866667 0-.3733333 0-.56 0-3.3137085-2.6862915-6-6-6s-6 2.6862915-6 6v.75zm3.33 19.34 5.34 5.98c-10.7320188 9.683245-26.4317588 11.475434-39.07 4.46 2.2173898-1.770106 4.2298937-3.78261 6-6 9.3073088 4.139553 20.1804615 2.398594 27.73-4.44z"/><path d="m79 0c-26.0508556.00661184-50.4237582 12.855691-65.148874 34.3456441-14.72511576 21.4899532-17.90922061 48.8577936-8.511126 73.1543559h8.66c-15.11671139-34.3190897-1.0224502-74.480508 32.2256045-91.826451 33.2480548-17.34594295 74.2511425-5.92952882 93.7508735 26.1028827 19.49973 32.0324116 10.810817 73.6988313-19.86663 95.2675373-30.6774475 21.568707-72.8259759 15.645087-96.369848-13.543969h-10c21.1788847 31.066053 61.3179542 42.901321 95.9635 28.295468 34.645546-14.605853 54.19687-51.60537 46.742824-88.4575343-7.454047-36.8521643-39.847856-63.34479652-77.446324-63.3379337z"/></g></svg>