<?xml version="1.0" encoding="UTF-8"?>
<svg width="135px" height="81px" viewBox="0 0 135 81" version="1.1" xmlns="http://www.w3.org/2000/svg" xmlns:xlink="http://www.w3.org/1999/xlink">
    <!-- Generator: Sketch 51.3 (57544) - http://www.bohemiancoding.com/sketch -->
    <title>NewLogoAsset 10</title>
    <desc>Created with Sketch.</desc>
    <defs>
        <linearGradient x1="0%" y1="96.5967942%" x2="100%" y2="39.0988737%" id="linearGradient-1">
            <stop stop-color="#FFAEFE" offset="0%"></stop>
            <stop stop-color="#7FC9FF" offset="52.4932239%"></stop>
            <stop stop-color="#2EFFDA" offset="100%"></stop>
        </linearGradient>
    </defs>
    <g id="Logo" stroke="none" stroke-width="1" fill="none" fill-rule="evenodd">
        <g id="NewLogoAsset-10" fill="url(#linearGradient-1)" fill-rule="nonzero">
            <path d="M27,43.0979268 L27,15.1628049 C27,15.0442683 27,14.9356098 27,14.8170732 C27,14.6689024 27,14.5207317 27,14.382439 C27,14.2441463 27,14.1157317 27,13.9873171 C27.0325483,13.602814 27.0859585,13.220313 27.16,12.8414634 L35.35,12.8414634 C35.134624,13.4348897 35.0164725,14.0584583 35,14.6886585 C35,14.8467073 35,15.0047561 35,15.1628049 L35,47.4146341 C35.0108661,51.9905642 36.2644466,56.4798027 38.63,60.4141463 C36.9874236,62.5761395 34.9529885,64.4182957 32.63,65.8470732 C28.9682207,60.3793094 27.0107279,53.9705406 27,47.4146341 L27,43.0979268 Z M95,47.4146341 C94.9988625,59.2914964 88.6475193,70.2846114 78.2960141,76.326446 C67.9445088,82.3682806 55.1323004,82.5603029 44.6,76.8314634 C46.8173898,75.0829438 48.8298937,73.0949826 50.6,70.9046341 C53.8741614,72.3432898 57.4165342,73.0902287 61,73.097561 C75.3411701,73.0541724 86.9560757,61.5809119 87,47.4146341 L87,15.380122 C87,15.1529268 87,14.9257317 87,14.6985366 C86.9723858,11.4252392 84.2637085,8.79382008 80.95,8.82109756 C77.6362915,8.84837504 74.9723858,11.5240197 75,14.7973171 C75,15.0442683 75,15.3010976 75,15.5579268 L75,47.4146341 C75.0108661,51.9905642 76.2644466,56.4798027 78.63,60.4141463 C76.9874236,62.5761395 74.9529885,64.4182957 72.63,65.8470732 C68.9682207,60.3793094 67.0107279,53.9705406 67,47.4146341 L67,15.5579268 C67,15.3109756 67,15.0640244 67,14.8170732 C66.8619288,7.17937919 73.0180135,0.877241051 80.75,0.740853659 C88.4819865,0.604466266 94.8619288,6.68547675 95,14.3231707 L95,14.372561 C95,14.5207317 95,14.6689024 95,14.8170732 C95,15.0047561 95,15.192439 95,15.3702439 L95,47.4146341 Z M135,14.6195122 L135,47.4146341 C134.998862,59.2914964 128.647519,70.2846114 118.296014,76.326446 C107.944509,82.3682806 95.1323004,82.5603029 84.6,76.8314634 C86.8173898,75.0829438 88.8298937,73.0949826 90.6,70.9046341 C93.8741614,72.3432898 97.4165342,73.0902287 101,73.097561 C107.895629,73.097561 114.50883,70.391689 119.384776,65.5752059 C124.260722,60.7587228 127,54.2261698 127,47.4146341 L127,14.8170732 C127.013807,11.5437758 124.338708,8.87918752 121.025,8.86554878 C117.711292,8.85191004 115.013807,11.4943855 115,14.7676829 C115,15.0245122 115,15.2813415 115,15.5381707 L115,47.4146341 C115.010866,51.9905642 116.264447,56.4798027 118.63,60.4141463 C116.987424,62.5761395 114.952988,64.4182957 112.63,65.8470732 C108.967146,60.3798076 107.009554,53.9707127 107,47.4146341 L107,15.5381707 C107,15.2912195 107,15.0541463 107,14.8170732 C106.944772,7.17937919 113.168014,0.943579347 120.9,0.88902439 C128.631986,0.834469433 134.944772,6.98181822 135,14.6195122 Z M55,47.4146341 C55,65.9633195 39.7776815,81 21,81 L-3.55271368e-15,81 L-3.55271368e-15,73.097561 L21,73.097561 C27.8956287,73.097561 34.5088305,70.391689 39.3847763,65.5752059 C44.2607222,60.7587228 47,54.2261698 47,47.4146341 L47,15.1628049 C47,15.0047561 47,14.8467073 47,14.6985366 C46.934652,11.4716228 44.2674057,8.88959833 41,8.8902439 L14,8.8902439 L14,0.987804878 L41,0.987804878 C48.5935521,0.985324573 54.8047376,6.96299554 55,14.4614634 L55,14.6689024 C55,14.7182927 55,14.7676829 55,14.8170732 C55,14.9356098 55,15.0442683 55,15.1628049 L55,47.4146341 Z" id="Combined-Shape"></path>
        </g>
    </g>
</svg>