<?xml version="1.0" encoding="utf-8"?>
<!-- Generator: Adobe Illustrator 22.1.0, SVG Export Plug-In . SVG Version: 6.00 Build 0)  -->
<svg version="1.1" id="Layer_1" xmlns="http://www.w3.org/2000/svg" xmlns:xlink="http://www.w3.org/1999/xlink" x="0px" y="0px"
	 viewBox="0 0 162.3 162.3" style="enable-background:new 0 0 162.3 162.3;" xml:space="preserve">
<style type="text/css">
	.st0{fill:#FFFFFF;}
</style>
<title>Asset 40</title>
<g id="Layer_2_1_">
	<g id="Layer_1-2">
		<path class="st0" d="M128.6,57.6c2.4,0,4.3,1.9,4.3,4.3c0,0.6-0.1,1.2-0.4,1.7l-13.9,31.7v0.1l-5,11.3c-0.7,1.6-2.2,2.6-3.9,2.6
			H41.3c-2.4,0-4.3-1.9-4.3-4.3c0-0.6,0.1-1.2,0.4-1.7l3.4-7.8v-0.1l7.8-17.7c0.9-2.2-0.1-4.7-2.2-5.6c-0.5-0.2-1.1-0.4-1.7-0.4
			h-8.5c-2.4,0-4.3-1.9-4.3-4.3c0-0.6,0.1-1.2,0.4-1.7l2.4-5.4c0.7-1.6,2.2-2.6,3.9-2.6h31.9c2.4,0,4.3,1.9,4.3,4.3
			c0,0.6-0.1,1.2-0.4,1.7L63.2,89.3c-0.9,2.2,0.1,4.7,2.2,5.6c0.5,0.2,1.1,0.4,1.7,0.4l0,0c1.7,0,3.2-1,3.9-2.6l14.2-32.3
			c0.7-1.6,2.2-2.6,3.9-2.6h10.3c2.4,0,4.3,1.9,4.3,4.3c0,0.6-0.1,1.2-0.4,1.7L92.2,89.3c-1,2.2,0,4.7,2.2,5.7s4.7,0,5.7-2.2l0,0
			l14.3-32.5c0.7-1.6,2.2-2.6,3.9-2.6H128.6 M128.6,49.6h-10.3c-3.7,0-7.2,1.6-9.5,4.5c-2.3-2.7-5.7-4.3-9.3-4.3H89.2
			c-3.5,0-6.9,1.5-9.2,4.2c-2.3-2.8-5.8-4.4-9.4-4.4h-32c-4.9,0-9.3,2.9-11.3,7.4L25,62.3c-2.7,6.2,0.1,13.5,6.3,16.2
			c1.6,0.7,3.2,1,4.9,1h2.8l-5.5,12.5v0.1l-3.5,7.8c-2.7,6.2,0.1,13.5,6.3,16.2c1.6,0.7,3.3,1,5,1h68.3c4.9,0,9.3-2.9,11.3-7.3
			l5-11.3v-0.1l13.9-31.7c2.7-6.2-0.1-13.5-6.3-16.2C132,50,130.3,49.6,128.6,49.6z"/>
		<path class="st0" d="M81.1,8c40.4,0,73.2,32.7,73.2,73.1s-32.7,73.2-73.1,73.2S8,121.6,8,81.2c0,0,0,0,0,0C8,40.7,40.7,8,81.1,8
			 M81.1,0C36.3,0,0,36.3,0,81.2s36.3,81.2,81.2,81.2s81.2-36.3,81.2-81.2c0,0,0,0,0,0C162.2,36.3,125.9,0,81.1,0z"/>
	</g>
</g>
</svg>
